<svg id="Layer_1" data-name="Layer 1" xmlns="http://www.w3.org/2000/svg" viewBox="0 0 432.8 188.28"><defs><style>.cls-1{fill:#00577f;}.cls-2{fill:#ed1a3d;}</style></defs><title>Logo</title><path class="cls-1" d="M3054.2,442.59h13.61v39H3054.2v-39Z" transform="translate(-2822.02 -305.01)"/><polygon class="cls-1" points="239.04 137.59 232.18 137.59 232.18 123.98 245.78 123.98 239.04 137.59"/><path class="cls-2" d="M2974.35,442.59H2988v5.19c2.66-3.24,6-6,11.81-6,9.29,0,17.28,7.7,17.28,20.16V462c0,12.67-8,20.38-17.21,20.38A14.63,14.63,0,0,1,2988,476.8v16.27h-13.68V442.59Zm29.38,19.51V462c0-5.18-3.6-8.86-8-8.86s-8,3.67-8,8.86v0.14c0,5.19,3.53,8.86,8,8.86S3003.73,467.36,3003.73,462.11Z" transform="translate(-2822.02 -305.01)"/><path class="cls-1" d="M3023,442.59h13.68v7.85c2.23-5.33,5.83-8.79,12.31-8.5v14.4h-1.15c-7.13,0-11.16,4.1-11.16,13v12.17H3023v-39Z" transform="translate(-2822.02 -305.01)"/><path class="cls-1" d="M3074,462.25v-0.14c0-11.09,9.07-20.38,21.53-20.38S3117,450.88,3117,462v0.14c0,11.09-9.07,20.38-21.6,20.38S3074,473.34,3074,462.25Zm29.74,0v-0.14c0-4.82-3.53-8.86-8.35-8.86s-8.14,4-8.14,8.71v0.14c0,4.75,3.46,8.79,8.28,8.79S3103.73,466.93,3103.73,462.25Z" transform="translate(-2822.02 -305.01)"/><path class="cls-1" d="M3122.74,442.59h13.68v7.85c2.23-5.33,5.83-8.79,12.31-8.5v14.4h-1.15c-7.13,0-11.16,4.1-11.16,13v12.17h-13.68v-39Z" transform="translate(-2822.02 -305.01)"/><path class="cls-1" d="M3153.91,442.59h13.61v39h-13.61v-39Z" transform="translate(-2822.02 -305.01)"/><path class="cls-1" d="M3240.78,442.59h14l-14.26,38c-3.38,9.14-7.06,12.67-14.83,12.67a24.19,24.19,0,0,1-12.46-3.38l4.18-9.58a13.51,13.51,0,0,0,6,2.09,3.61,3.61,0,0,0,3.24-1.58l-15.27-38.24h14.26l7.78,23.47Z" transform="translate(-2822.02 -305.01)"/><path class="cls-1" d="M3181,442.59h13.61v39H3181v-39Z" transform="translate(-2822.02 -305.01)"/><rect class="cls-1" x="358.99" y="123.98" width="13.61" height="13.61"/><rect class="cls-1" x="372.19" y="137.93" width="13.61" height="13.61"/><polygon class="cls-1" points="338.75 137.59 331.89 137.59 331.89 123.98 345.5 123.98 338.75 137.59"/><polygon class="cls-1" points="89.09 89.09 71.21 71.21 44.55 44.55 0 89.09 26.66 115.76 44.55 133.64 89 178.09 133.55 133.55 89.09 89.09"/><polygon class="cls-2" points="178.09 0 150.66 27.43 133.55 44.55 89.05 89.05 89 89 60.23 117.77 103.31 103.41 133.55 133.64 178.09 89.09 195.21 71.98 222.64 44.55 178.09 0"/></svg>